<svg xmlns="http://www.w3.org/2000/svg" version="1.1" xmlns:xlink="http://www.w3.org/1999/xlink" xmlns:svgjs="http://svgjs.com/svgjs" width="512" height="512" x="0" y="0" viewBox="0 0 512 512" style="enable-background:new 0 0 512 512" xml:space="preserve" class=""><g><path d="M256 256v256H96c-52.985-.082-95.918-43.015-96-96V256h256z" style="" fill="#2196f3" data-original="#2196f3"></path><path d="M512 256v160c-.082 52.985-43.015 95.918-96 96H256V256h256z" style="" fill="#455a64" data-original="#455a64"></path><path d="M512 96v160H256V0h160c52.985.082 95.918 43.015 96 96z" style="" fill="#ffc107" data-original="#ffc107"></path><path d="M256 0v256H0V96C.082 43.015 43.015.082 96 0h160z" style="" fill="#4caf50" data-original="#4caf50" class=""></path><path d="M202.667 149.333h-128c-5.891 0-10.667-4.776-10.667-10.667S68.776 128 74.667 128h128c5.891 0 10.667 4.776 10.667 10.667s-4.776 10.666-10.667 10.666z" style="" fill="#fafafa" data-original="#fafafa"></path><path d="M138.667 213.333c-5.891 0-10.667-4.776-10.667-10.667v-128C128 68.776 132.776 64 138.667 64s10.667 4.776 10.667 10.667v128c-.001 5.891-4.776 10.666-10.667 10.666zM437.333 149.333H330.667c-5.891 0-10.667-4.776-10.667-10.667S324.776 128 330.667 128h106.667c5.891 0 10.667 4.776 10.667 10.667s-4.777 10.666-10.668 10.666zM181.333 448a10.666 10.666 0 0 1-8.341-3.989L87.659 337.344c-3.682-4.601-2.937-11.315 1.664-14.997 4.601-3.682 11.315-2.937 14.997 1.664l85.333 106.667c3.676 4.603 2.924 11.315-1.679 14.991a10.664 10.664 0 0 1-6.641 2.331z" style="" fill="#fafafa" data-original="#fafafa"></path><path d="M96 448c-5.891.003-10.669-4.769-10.673-10.661a10.672 10.672 0 0 1 2.331-6.662l85.333-106.667c3.682-4.601 10.396-5.346 14.997-1.664 4.601 3.682 5.346 10.396 1.664 14.997L104.32 444.011A10.666 10.666 0 0 1 96 448zM416 448a10.664 10.664 0 0 1-9.152-5.184l-64-106.667c-2.943-5.103-1.191-11.626 3.912-14.569a10.667 10.667 0 0 1 14.371 3.582l64 106.667c3.04 5.046 1.413 11.601-3.633 14.641-1.66 1-3.56 1.529-5.498 1.53z" style="" fill="#fafafa" data-original="#fafafa"></path></g></svg>