<svg width="120" height="120" viewBox="0 0 120 120" fill="none" xmlns="http://www.w3.org/2000/svg">
<g clip-path="url(#clip0_10_2)">
<path d="M60 60V120H22.5C10.0816 119.981 0.0192188 109.918 0 97.5V60H60Z" fill="#2196F3"/>
<path d="M120 60V97.5C119.981 109.918 109.918 119.981 97.5 120H60V60H120Z" fill="#455A64"/>
<path d="M120 22.5V60H60V0H97.5C109.918 0.0192188 119.981 10.0816 120 22.5Z" fill="#FFC107"/>
<path d="M60 0V60H0V22.5C0.0192188 10.0816 10.0816 0.0192188 22.5 0H60Z" fill="#4CAF50"/>
<path d="M47.5001 34.9999H17.5001C16.1194 34.9999 15 33.8805 15 32.4998C15 31.1191 16.1194 30 17.5001 30H47.5001C48.8808 30 50.0002 31.1194 50.0002 32.5001C50.0002 33.8808 48.8808 34.9999 47.5001 34.9999Z" fill="#FAFAFA"/>
<path d="M32.5001 49.9999C31.1194 49.9999 30 48.8805 30 47.4998V17.4998C30 16.1194 31.1194 15 32.5001 15C33.8808 15 35.0002 16.1194 35.0002 17.5001V47.5001C34.9999 48.8808 33.8808 49.9999 32.5001 49.9999ZM102.5 34.9999H77.5001C76.1194 34.9999 75 33.8805 75 32.4998C75 31.1191 76.1194 30 77.5001 30H102.5C103.881 30 105 31.1194 105 32.5001C105 33.8808 103.881 34.9999 102.5 34.9999ZM42.4999 105C42.1248 105.001 41.7543 104.917 41.4159 104.755C41.0775 104.594 40.7798 104.358 40.545 104.065L20.5451 79.065C19.6821 77.9866 19.8567 76.413 20.9351 75.5501C22.0134 74.6871 23.587 74.8617 24.45 75.9401L44.4499 100.94C45.3115 102.019 45.1352 103.592 44.0564 104.454C43.6144 104.807 43.0656 104.999 42.4999 105Z" fill="#FAFAFA"/>
<path d="M22.5 105C21.1193 105.001 19.9995 103.882 19.9985 102.501C19.9983 101.934 20.1909 101.383 20.5448 100.94L40.5448 75.9398C41.4077 74.8615 42.9813 74.6869 44.0597 75.5498C45.1381 76.4128 45.3127 77.9864 44.4497 79.0648L24.45 104.065C24.2157 104.357 23.9188 104.592 23.5813 104.754C23.2438 104.916 22.8743 105 22.5 105ZM97.5 105C97.0679 105 96.6432 104.888 96.2673 104.675C95.8914 104.462 95.577 104.156 95.355 103.785L80.355 78.7849C79.6652 77.5889 80.0759 76.0601 81.2719 75.3703C81.8328 75.0469 82.4972 74.9536 83.1254 75.1102C83.7537 75.2668 84.2966 75.661 84.6401 76.2098L99.6401 101.21C100.353 102.393 99.9713 103.929 98.7886 104.641C98.3995 104.876 97.9542 105 97.5 105Z" fill="#FAFAFA"/>
</g>
<defs>
<clipPath id="clip0_10_2">
<rect width="120" height="120" fill="white"/>
</clipPath>
</defs>
</svg>
